<svg width="29" height="24" viewBox="0 0 29 24" fill="none" xmlns="http://www.w3.org/2000/svg">
<rect width="29" height="24" fill="#E5E5E5"/>
<g id="Portfolio Home Page 1">
<rect width="1920" height="5043" transform="translate(-416 -1764)" fill="white"/>
<g id="Service section">
<g id="Group 28">
<g id="uiux ">
<g id="Rectangle 10" filter="url(#filter0_d_0_1)">
<rect x="-41" y="-46" width="273" height="251" fill="white"/>
</g>
<g id="Group 16">
<circle id="Ellipse 2" cx="14" cy="9" r="25" fill="#F5FBFC"/>
<g id="Group 14">
<path id="Vector" d="M14.5 8.13404C16.5711 8.13404 18.25 6.76089 18.25 5.06702C18.25 3.37315 16.5711 2 14.5 2C12.4289 2 10.75 3.37315 10.75 5.06702C10.75 6.76089 12.4289 8.13404 14.5 8.13404Z" stroke="#08546C" stroke-width="3" stroke-linecap="round" stroke-linejoin="round"/>
<path id="Vector_2" d="M14.5 22.4469V8.13416" stroke="#08546C" stroke-width="3" stroke-linecap="round" stroke-linejoin="round"/>
<path id="Vector_3" d="M5.75 12.2234H2C2 14.9348 3.31696 17.5352 5.66117 19.4524C8.00537 21.3697 11.1848 22.4468 14.5 22.4468C17.8152 22.4468 20.9946 21.3697 23.3388 19.4524C25.683 17.5352 27 14.9348 27 12.2234H23.25" stroke="#08546C" stroke-width="3" stroke-linecap="round" stroke-linejoin="round"/>
</g>
</g>
</g>
</g>
</g>
</g>
<defs>
<filter id="filter0_d_0_1" x="-74.4221" y="-46" width="339.844" height="326.2" filterUnits="userSpaceOnUse" color-interpolation-filters="sRGB">
<feFlood flood-opacity="0" result="BackgroundImageFix"/>
<feColorMatrix in="SourceAlpha" type="matrix" values="0 0 0 0 0 0 0 0 0 0 0 0 0 0 0 0 0 0 127 0" result="hardAlpha"/>
<feOffset dy="41.7776"/>
<feGaussianBlur stdDeviation="16.711"/>
<feColorMatrix type="matrix" values="0 0 0 0 0 0 0 0 0 0 0 0 0 0 0 0 0 0 0.0503198 0"/>
<feBlend mode="normal" in2="BackgroundImageFix" result="effect1_dropShadow_0_1"/>
<feBlend mode="normal" in="SourceGraphic" in2="effect1_dropShadow_0_1" result="shape"/>
</filter>
</defs>
</svg>
